<?xml version="1.0" encoding="UTF-8"?>
<svg xmlns="http://www.w3.org/2000/svg" xmlns:xlink="http://www.w3.org/1999/xlink" width="400pt" height="400pt" viewBox="0 0 400 400" version="1.1">
<g id="surface1">
<path style=" stroke:none;fill-rule:nonzero;fill:rgb(0%,0%,0%);fill-opacity:1;" d="M 191.054688 309.46875 L 188.425781 310.34375 C 171.488281 315.949219 146.4375 324.574219 123.941406 334.871094 C 122.738281 335.429688 121.949219 337 121.949219 337 C 121.527344 337.96875 121 339.152344 120.40625 340.492188 L 120.335938 340.664062 C 117.804688 346.375 114.324219 354.96875 112.859375 358.457031 L 111.691406 361.210938 C 111.507812 361.65625 111.621094 362.15625 111.953125 362.480469 C 112.167969 362.683594 112.441406 362.796875 112.722656 362.808594 C 112.902344 362.808594 113.078125 362.769531 113.242188 362.683594 L 115.953125 361.40625 C 122.125 358.488281 129.894531 354.066406 138.074219 350.199219 L 138.351562 350.070312 C 153.894531 342.738281 171.429688 334.457031 181.972656 329.441406 C 181.980469 329.4375 183.679688 328.539062 184.53125 326.84375 L 192.4375 311.0625 C 192.648438 310.652344 192.582031 310.15625 192.277344 309.804688 C 191.988281 309.453125 191.484375 309.332031 191.054688 309.46875 M 127.90625 285.011719 C 129.011719 282.84375 134.132812 273.03125 135.292969 270.835938 L 135.507812 270.460938 C 169.808594 206.035156 211.617188 145.265625 259.746094 89.851562 L 261.078125 88.316406 C 261.496094 87.835938 261.566406 87.160156 261.261719 86.597656 C 260.957031 86.039062 260.328125 85.734375 259.703125 85.816406 L 257.699219 86.09375 C 226.109375 90.421875 194.152344 96.417969 162.664062 103.910156 C 159.539062 104.777344 157.515625 106.808594 157.082031 107.28125 C 133.515625 135.371094 111.191406 164.957031 90.722656 195.253906 C 89.695312 196.78125 89.582031 200.449219 89.582031 200.449219 C 89.582031 200.449219 94.746094 239.90625 102.257812 268.988281 C 83.636719 322.285156 67.023438 392.507812 67.023438 392.507812 C 66.894531 392.960938 66.980469 393.457031 67.261719 393.835938 C 67.546875 394.214844 67.988281 394.445312 68.464844 394.464844 L 79.066406 394.464844 C 79.722656 394.476562 80.320312 394.078125 80.539062 393.464844 L 81.273438 391.484375 C 92.097656 362.113281 104.414062 333.121094 118.054688 304.867188 C 121.230469 298.289062 127.90625 285.011719 127.90625 285.011719 "/>
<path style=" stroke:none;fill-rule:nonzero;fill:rgb(0%,0%,0%);fill-opacity:1;" d="M 275.285156 101.367188 L 275.265625 99.363281 C 275.25 98.726562 274.859375 98.164062 274.257812 97.949219 C 273.664062 97.730469 272.988281 97.894531 272.570312 98.375 L 271.246094 99.902344 C 215.132812 164.515625 167.972656 236.242188 131.054688 313.0625 L 130.199219 314.859375 C 129.9375 315.425781 130.039062 316.109375 130.472656 316.558594 C 130.761719 316.867188 131.148438 317.03125 131.554688 317.042969 C 131.757812 317.042969 131.972656 317.003906 132.171875 316.925781 L 134.019531 316.164062 C 165.535156 303.164062 197.738281 291.890625 229.707031 282.691406 C 231.625 282.144531 233.238281 280.8125 234.15625 279.046875 C 248.191406 251.847656 280.714844 199.1875 280.714844 199.1875 C 281.542969 197.992188 281.339844 196.238281 281.339844 196.238281 C 281.339844 196.238281 275.644531 133.246094 275.285156 101.367188 "/>
<path style=" stroke:none;fill-rule:nonzero;fill:rgb(0%,0%,0%);fill-opacity:1;" d="M 310.371094 0.0234375 C 294.078125 -0.324219 274.714844 3.164062 252.769531 10.371094 C 249.480469 11.523438 246.882812 13.332031 244.53125 15.628906 C 222.234375 36.480469 200.523438 58.597656 180.003906 81.453125 L 178.433594 83.191406 C 177.992188 83.683594 177.925781 84.402344 178.257812 84.972656 C 178.597656 85.542969 179.253906 85.835938 179.902344 85.699219 L 182.183594 85.207031 C 215.269531 78.167969 248.636719 72.785156 281.378906 69.222656 C 283.535156 68.988281 285.761719 69.707031 287.367188 71.171875 C 288.996094 72.640625 289.90625 74.742188 289.863281 76.929688 C 289.3125 109.28125 290.496094 141.800781 293.398438 173.574219 L 293.59375 175.648438 C 293.652344 176.289062 294.097656 176.816406 294.71875 176.984375 C 295.585938 177.054688 296.066406 176.8125 296.371094 176.386719 L 297.574219 174.683594 C 316.035156 148.480469 336.097656 123 357.234375 98.914062 C 359.566406 96.226562 360.199219 94.535156 360.640625 92.097656 C 367.289062 49.75 357.019531 18.445312 347.84375 10.519531 C 339.878906 3.648438 328.316406 0.414062 310.371094 0.0234375 Z M 310.371094 0.0234375 "/>
</g>
</svg>
